<?xml version="1.0" encoding="UTF-8" standalone="no"?>
<svg
   xmlns:dc="http://purl.org/dc/elements/1.1/"
   xmlns:cc="http://creativecommons.org/ns#"
   xmlns:rdf="http://www.w3.org/1999/02/22-rdf-syntax-ns#"
   xmlns:svg="http://www.w3.org/2000/svg"
   xmlns="http://www.w3.org/2000/svg"
   xmlns:sodipodi="http://sodipodi.sourceforge.net/DTD/sodipodi-0.dtd"
   xmlns:inkscape="http://www.inkscape.org/namespaces/inkscape"
   version="1.0"
   width="1182.000000pt"
   height="355.000000pt"
   viewBox="0 0 1182.000000 355.000000"
   preserveAspectRatio="xMidYMid meet"
   id="svg2"
   inkscape:version="0.91 r13725"
   sodipodi:docname="4WINGS_Logotype_horizontal_positif_rvb.svg">
  <defs
     id="defs44">
    <filter
       height="1"
       width="1"
       y="0"
       x="0"
       style="color-interpolation-filters:sRGB;"
       inkscape:label="Evanescent"
       id="filter3372"
       inkscape:menu="Blurs"
       inkscape:menu-tooltip="Blur the contents of objects, preserving the outline and adding progressive transparency at edges">
      <feGaussianBlur
         stdDeviation="4.8 13.6"
         result="blur"
         id="feGaussianBlur3374" />
      <feColorMatrix
         values="1 0 0 0 0 0 1 0 0 0 0 0 1 0 0 0 0 0 50 0 "
         result="colormatrix"
         id="feColorMatrix3376" />
      <feComposite
         in="colormatrix"
         in2="SourceGraphic"
         operator="in"
         id="feComposite3378"
         result="fbSourceGraphic" />
      <feColorMatrix
         result="fbSourceGraphicAlpha"
         in="fbSourceGraphic"
         values="0 0 0 -1 0 0 0 0 -1 0 0 0 0 -1 0 0 0 0 1 0"
         id="feColorMatrix3380" />
      <feGaussianBlur
         id="feGaussianBlur3382"
         stdDeviation="11.4 13.6"
         result="blur"
         in="fbSourceGraphic" />
      <feColorMatrix
         id="feColorMatrix3384"
         values="1 0 0 0 0 0 1 0 0 0 0 0 1 0 0 0 0 0 50 0 "
         result="colormatrix" />
      <feComposite
         id="feComposite3386"
         in2="fbSourceGraphic"
         in="colormatrix"
         operator="in"
         result="fbSourceGraphic" />
      <feColorMatrix
         result="fbSourceGraphicAlpha"
         in="fbSourceGraphic"
         values="0 0 0 -1 0 0 0 0 -1 0 0 0 0 -1 0 0 0 0 1 0"
         id="feColorMatrix3388" />
      <feGaussianBlur
         id="feGaussianBlur3390"
         stdDeviation="13.3 13.6"
         result="blur"
         in="fbSourceGraphic" />
      <feColorMatrix
         id="feColorMatrix3392"
         values="1 0 0 0 0 0 1 0 0 0 0 0 1 0 0 0 0 0 50 0 "
         result="colormatrix" />
      <feComposite
         id="feComposite3394"
         in2="fbSourceGraphic"
         in="colormatrix"
         operator="in"
         result="fbSourceGraphic" />
      <feColorMatrix
         result="fbSourceGraphicAlpha"
         in="fbSourceGraphic"
         values="0 0 0 -1 0 0 0 0 -1 0 0 0 0 -1 0 0 0 0 1 0"
         id="feColorMatrix3396" />
      <feGaussianBlur
         id="feGaussianBlur3398"
         stdDeviation="13.3 13.6"
         result="blur"
         in="fbSourceGraphic" />
      <feColorMatrix
         id="feColorMatrix3400"
         values="1 0 0 0 0 0 1 0 0 0 0 0 1 0 0 0 0 0 50 0 "
         result="colormatrix" />
      <feComposite
         id="feComposite3402"
         in2="fbSourceGraphic"
         in="colormatrix"
         operator="in"
         result="fbSourceGraphic" />
      <feColorMatrix
         result="fbSourceGraphicAlpha"
         in="fbSourceGraphic"
         values="0 0 0 -1 0 0 0 0 -1 0 0 0 0 -1 0 0 0 0 1 0"
         id="feColorMatrix3404" />
      <feGaussianBlur
         id="feGaussianBlur3406"
         stdDeviation="13.3 13.6"
         result="blur"
         in="fbSourceGraphic" />
      <feColorMatrix
         id="feColorMatrix3408"
         values="1 0 0 0 0 0 1 0 0 0 0 0 1 0 0 0 0 0 50 0 "
         result="colormatrix" />
      <feComposite
         id="feComposite3410"
         in2="fbSourceGraphic"
         in="colormatrix"
         operator="in"
         result="fbSourceGraphic" />
      <feColorMatrix
         result="fbSourceGraphicAlpha"
         in="fbSourceGraphic"
         values="0 0 0 -1 0 0 0 0 -1 0 0 0 0 -1 0 0 0 0 1 0"
         id="feColorMatrix3808" />
      <feGaussianBlur
         id="feGaussianBlur3810"
         result="result6"
         stdDeviation="3"
         in="fbSourceGraphic" />
      <feColorMatrix
         id="feColorMatrix3812"
         values="1 0 0 0 0 0 1 0 0 0 0 0 1 0 0 0 0 0 1 0 "
         result="result7"
         in="fbSourceGraphic" />
      <feComposite
         id="feComposite3814"
         in2="result7"
         operator="in"
         in="result6" />
    </filter>
  </defs>
  <sodipodi:namedview
     pagecolor="#ffffff"
     bordercolor="#666666"
     borderopacity="1"
     objecttolerance="10"
     gridtolerance="10"
     guidetolerance="10"
     inkscape:pageopacity="0"
     inkscape:pageshadow="2"
     inkscape:window-width="1920"
     inkscape:window-height="1000"
     id="namedview42"
     showgrid="false"
     inkscape:zoom="0.9983453"
     inkscape:cx="713.53251"
     inkscape:cy="236.3841"
     inkscape:window-x="0"
     inkscape:window-y="27"
     inkscape:window-maximized="1"
     inkscape:current-layer="g6"
     inkscape:snap-grids="true"
     inkscape:snap-others="true" />
  <metadata
     id="metadata4">
Created by potrace 1.15, written by Peter Selinger 2001-2017
<rdf:RDF>
  <cc:Work
     rdf:about="">
    <dc:format>image/svg+xml</dc:format>
    <dc:type
       rdf:resource="http://purl.org/dc/dcmitype/StillImage" />
  </cc:Work>
</rdf:RDF>
</metadata>
  <g
     transform="translate(0.000000,355.000000) scale(0.100000,-0.100000)"
     fill="#000000"
     stroke="none"
     id="g6">
    <path
       d="M2201 2865 c-51 -16 -95 -55 -124 -110 -29 -56 -36 -209 -12 -291 47 -164 202 -377 413 -568 l54 -48 -7 -62 c-9 -87 -11 -91 -53 -110 -35 -16 -41 -15 -107 4 -282 81 -485 215 -485 321 0 98 100 104 292 17 73 -33 94 -32 104 7 10 39 1 49 -83 93 -258 134 -459 78 -458 -128 1 -153 128 -285 373 -390 l103 -44 -33 -13 c-94 -40 -277 -95 -388 -117 -279 -56 -697 -84 -977 -66 -95 6 -182 8 -193 5 -25 -8 -43 -40 -35 -64 31 -97 762 -120 1173 -36 258 52 506 126 660 196 36 16 66 28 67 27 1 -2 -4 -61 -11 -133 -17 -164 -19 -405 -5 -468 31 -133 113 -207 231 -207 93 0 156 40 196 125 60 126 -5 287 -92 230 -25 -16 -26 -19 -19 -86 7 -67 6 -69 -23 -99 -37 -37 -71 -38 -111 -5 -44 38 -55 101 -48 282 5 129 60 579 73 592 16 16 33 -36 43 -124 20 -190 90 -399 176 -530 62 -92 146 -169 233 -212 73 -37 80 -38 182 -38 97 0 109 2 152 28 68 39 98 95 98 178 0 57 -5 73 -36 125 -49 82 -120 152 -416 411 -295 257 -275 225 -238 381 23 95 25 143 8 160 -18 18 -53 15 -72 -7 -18 -20 -51 -106 -61 -163 -8 -40 -14 -45 -33 -26 -8 8 -12 59 -12 164 0 173 -16 285 -61 419 -101 302 -256 437 -438 380z m152 -188 c48 -50 115 -178 146 -281 25 -82 51 -232 51 -296 l0 -44 -51 49 c-79 78 -213 248 -248 317 -59 118 -65 225 -16 274 36 36 69 31 118 -19z m729 -1310 c173 -153 261 -244 297 -307 20 -36 20 -39 3 -60 -27 -33 -93 -37 -167 -9 -46 17 -76 38 -131 93 -61 61 -80 89 -132 196 -56 114 -92 219 -92 266 0 15 4 14 28 -8 15 -14 102 -91 194 -171z"
       id="path8"
       style="filter:url(#filter3372)" />
    <path
       d="M 4332.6797,2439.5341 C 4510,2120 4202.7574,2113.6633 4089,2125 l 3,-50 3,-50 147,-3 147,-3 3,-62 3,-62 55,0 55,0 3,62 3,62 42,3 42,3 3,48 3,47 -45,0 -46,0 0,205 0,205 -44,0 -43,0 z"
       id="path10"
       inkscape:connector-curvature="0"
       sodipodi:nodetypes="ccccccccccccccccccccccc" />
    <path
       d="M5310 2508 c-5 -13 -38 -97 -74 -188 l-64 -165 -10 40 c-6 22 -24 94 -41 160 -45 174 -39 165 -111 165 -42 0 -60 -4 -60 -12 1 -7 40 -152 89 -322 89 -315 103 -348 135 -316 8 8 47 98 86 200 39 102 75 189 79 193 4 4 43 -84 87 -195 68 -172 83 -203 102 -206 15 -2 25 4 32 20 17 40 170 597 170 618 0 19 -5 21 -62 18 l-62 -3 -47 -185 c-26 -102 -48 -180 -48 -173 -1 6 -33 93 -72 192 -65 166 -73 181 -95 181 -16 0 -28 -8 -34 -22z"
       id="path12" />
    <path
       d="M6137 2524 c-4 -4 -7 -146 -7 -314 0 -254 2 -310 14 -319 8 -7 36 -11 63 -9 l48 3 0 320 0 320 -55 3 c-31 2 -59 0 -63 -4z"
       id="path14" />
    <path
       d="M6685 2517 c-3 -7 -4 -154 -3 -327 l3 -315 57 -3 58 -3 2 201 3 202 183 -202 c101 -111 190 -204 198 -207 8 -3 21 0 29 7 13 11 15 58 13 329 l-3 316 -62 3 -63 3 -2 -191 -3 -192 -184 196 c-175 187 -213 218 -226 183z"
       id="path16" />
    <path
       d="M7846 2505 c-73 -30 -138 -92 -174 -165 -23 -47 -27 -67 -27 -145 0 -104 19 -156 80 -223 45 -51 138 -98 208 -107 62 -8 163 9 230 37 l48 21 -3 136 -3 136 -105 0 -105 0 0 -55 0 -55 43 -3 c40 -3 42 -4 42 -37 0 -36 -4 -38 -71 -50 -119 -21 -240 97 -227 219 8 66 38 117 92 154 63 42 130 44 200 7 59 -31 66 -31 99 3 38 40 35 67 -12 98 -89 59 -215 71 -315 29z"
       id="path18" />
    <path
       d="M8740 2515 c-74 -34 -110 -87 -110 -165 0 -89 47 -146 171 -204 41 -19 83 -44 93 -55 42 -46 7 -111 -59 -111 -18 0 -60 14 -94 32 l-63 32 -19 -24 c-22 -29 -33 -64 -26 -84 3 -8 32 -27 64 -42 49 -25 70 -29 138 -29 69 0 86 4 127 27 64 38 93 88 93 160 0 87 -35 131 -153 189 -135 67 -171 111 -124 151 35 31 60 31 130 -2 l67 -31 28 31 c42 47 34 78 -28 109 -64 31 -182 40 -235 16z"
       id="path20" />
    <path
       d="M4983 1450 c-95 -20 -169 -79 -212 -170 -22 -46 -26 -69 -26 -140 0 -73 4 -93 28 -142 112 -227 445 -220 551 11 30 67 29 198 -2 267 -57 127 -203 202 -339 174z m122 -71 c143 -36 212 -214 139 -356 -42 -83 -101 -118 -199 -118 -62 0 -78 4 -121 30 -131 82 -146 290 -28 394 63 56 127 71 209 50z"
       id="path22" />
    <path
       d="M9993 1450 c-93 -19 -175 -86 -214 -175 -17 -37 -23 -70 -23 -130 -1 -72 3 -88 32 -148 112 -228 442 -221 545 12 25 57 33 156 18 218 -39 157 -199 256 -358 223z m133 -75 c120 -35 188 -176 150 -309 -49 -166 -250 -221 -375 -103 -48 46 -71 101 -71 173 0 123 51 202 158 240 49 17 78 17 138 -1z"
       id="path24" />
    <path
       d="M4130 1415 c0 -34 1 -35 40 -35 l40 0 0 -235 0 -235 -40 0 c-39 0 -40 -1 -40 -35 l0 -35 115 0 115 0 0 35 c0 34 -1 35 -40 35 l-40 0 0 100 0 100 95 0 95 0 0 30 0 30 -95 0 -95 0 0 105 0 105 105 0 105 0 0 -45 c0 -45 0 -45 35 -45 l35 0 0 80 0 80 -215 0 -215 0 0 -35z"
       id="path26" />
    <path
       d="M5550 1415 c0 -33 2 -35 34 -35 l34 0 4 -202 c3 -183 6 -207 25 -243 38 -72 95 -104 188 -105 102 0 172 38 206 115 16 34 19 68 19 238 l0 197 40 0 c39 0 40 1 40 35 l0 35 -115 0 -115 0 0 -35 c0 -34 1 -35 40 -35 l40 0 0 -185 c0 -209 -7 -241 -62 -275 -26 -17 -45 -20 -96 -18 -54 4 -67 8 -93 34 -41 42 -48 82 -49 277 l0 167 40 0 c39 0 40 1 40 35 l0 35 -110 0 -110 0 0 -35z"
       id="path28" />
    <path
       d="M6330 1415 c0 -34 1 -35 40 -35 l40 0 0 -235 0 -235 -40 0 c-39 0 -40 -1 -40 -35 l0 -35 110 0 110 0 0 35 c0 33 -2 35 -35 35 l-35 0 0 195 c0 107 2 195 4 195 2 0 81 -103 176 -230 141 -188 177 -230 196 -230 l24 0 0 270 0 270 40 0 c39 0 40 1 40 35 l0 35 -115 0 -115 0 0 -35 c0 -34 1 -35 40 -35 l40 0 0 -190 c0 -104 -2 -190 -4 -190 -3 0 -80 101 -171 225 l-167 225 -69 0 -69 0 0 -35z"
       id="path30" />
    <path
       d="M7150 1416 c0 -35 1 -36 40 -36 l40 0 0 -235 0 -235 -40 0 c-39 0 -40 -1 -40 -36 l0 -36 168 4 c159 3 170 5 230 32 121 56 180 158 170 298 -7 88 -39 151 -102 199 -74 56 -129 70 -308 76 l-158 6 0 -37z m361 -63 c93 -42 148 -138 134 -237 -17 -135 -108 -205 -267 -206 l-78 0 0 236 0 237 83 -5 c51 -4 101 -13 128 -25z"
       id="path32" />
    <path
       d="M8060 1415 c0 -31 3 -35 25 -35 14 0 25 -4 25 -9 0 -7 -122 -335 -165 -443 -5 -12 -18 -18 -36 -18 -26 0 -29 -3 -29 -35 l0 -35 100 0 100 0 0 35 c0 32 -2 35 -31 35 -34 0 -34 0 1 90 l18 45 115 3 115 3 25 -68 25 -68 -29 -3 c-26 -3 -29 -7 -29 -38 l0 -34 100 0 100 0 0 34 c0 31 -3 35 -31 38 -30 3 -31 5 -119 236 l-87 232 28 0 c26 0 29 3 29 35 l0 35 -125 0 -125 0 0 -35z m207 -301 c-2 -3 -43 -4 -90 -2 l-85 3 46 123 46 124 44 -122 c24 -66 42 -123 39 -126z"
       id="path34" />
    <path
       d="M8600 1370 l0 -80 35 0 c35 0 35 0 35 45 l0 45 75 0 75 0 0 -235 0 -235 -45 0 c-45 0 -45 0 -45 -35 l0 -35 120 0 120 0 0 35 c0 34 -1 35 -40 35 l-40 0 0 235 0 235 70 0 70 0 0 -45 c0 -45 0 -45 35 -45 l35 0 0 80 0 80 -250 0 -250 0 0 -80z"
       id="path36" />
    <path
       d="M9300 1415 c0 -35 0 -35 45 -35 l45 0 0 -235 0 -235 -45 0 c-45 0 -45 0 -45 -35 l0 -35 120 0 120 0 0 35 c0 34 -1 35 -40 35 l-40 0 0 235 0 235 40 0 c39 0 40 1 40 35 l0 35 -120 0 -120 0 0 -35z"
       id="path38" />
    <path
       d="M10570 1415 c0 -34 1 -35 40 -35 l40 0 0 -235 0 -235 -40 0 c-39 0 -40 -1 -40 -35 l0 -35 115 0 115 0 0 35 c0 34 -1 35 -40 35 l-40 0 0 202 0 201 175 -234 c136 -180 182 -235 200 -237 l25 -3 0 270 0 271 40 0 c39 0 40 1 40 35 l0 35 -110 0 -110 0 0 -35 c0 -33 2 -35 35 -35 l35 0 0 -192 c0 -112 -4 -188 -9 -182 -5 5 -81 107 -170 227 l-162 217 -70 0 -69 0 0 -35z"
       id="path40" />
  </g>
</svg>
